HIERARCHY
ROOT Hips
{
	OFFSET 0.000000 0.000000 0.000000 
	CHANNELS 6 Xposition Yposition Zposition Yrotation Zrotation Xrotation 
	JOINT Lumbar
	{
		OFFSET 0.000000 0.000000 0.000000 
		CHANNELS 3 Zrotation Xrotation Yrotation
		JOINT Neck
		{
			OFFSET 0.000000 0.445665 0.000000 
			CHANNELS 3 Zrotation Xrotation Yrotation
			End Site
			{
				OFFSET 0.000000 0.227535 0.000000 
			}
		}
		JOINT RightShoulder
		{
			OFFSET 0.019635 0.377685 0.194865 
			CHANNELS 3 Zrotation Xrotation Yrotation
			JOINT RightElbow
			{
				OFFSET 0.000000 -0.243375 0.000000 
				CHANNELS 2 Zrotation Yrotation
				JOINT RightWrist
				{
					OFFSET 0.000000 -0.264825 0.000000 
					CHANNELS 2 Zrotation Xrotation
					End Site
					{
						OFFSET 0.006600 -0.176220 0.000990 
					}
				}
			}
		}
		JOINT LeftShoulder
		{
			OFFSET 0.019635 0.377685 -0.194865 
			CHANNELS 3 Zrotation Xrotation Yrotation
			JOINT LeftElbow
			{
				OFFSET 0.000000 -0.243375 0.000000 
				CHANNELS 2 Zrotation Yrotation
				JOINT LeftWrist
				{
					OFFSET 0.000000 -0.264825 0.000000 
					CHANNELS 2 Zrotation Xrotation
					End Site
					{
						OFFSET 0.006600 -0.176220 -0.000990 
					}
				}
			}
		}
	}
	JOINT RightHip
	{
		OFFSET 0.052140 -0.069960 0.075570 
		CHANNELS 3 Zrotation Xrotation Yrotation
		JOINT RightKnee
		{
			OFFSET 0.000000 -0.402270 0.000000 
			CHANNELS 1 Zrotation
			JOINT RightAnkle
			{
				OFFSET 0.000000 -0.404085 0.000000 
				CHANNELS 3 Zrotation Xrotation Yrotation
				End Site
				{
					OFFSET 0.204105 -0.089430 0.008415 
				}
			}
		}
	}
	JOINT LeftHip
	{
		OFFSET 0.052140 -0.069960 -0.075570 
		CHANNELS 3 Zrotation Xrotation Yrotation
		JOINT LeftKnee
		{
			OFFSET 0.000000 -0.402270 0.000000 
			CHANNELS 1 Zrotation
			JOINT LeftAnkle
			{
				OFFSET 0.000000 -0.404085 0.000000 
				CHANNELS 3 Zrotation Xrotation Yrotation
				End Site
				{
					OFFSET 0.204105 -0.089430 -0.008415 
				}
			}
		}
	}
}
MOTION
Frames: 24
Frame Time: 0.02
0.63269 -1.02753 -0.00034 -172.3708 54.51624 -3.76019 44.7561 2.30692 -4.90328 -11.89682 -4.27502 -0.83076 -3.13418 -144.71582 -77.97286 93.46284 107.07165 -47.10338 -6.07374 127.11285 37.84529 -43.76487 105.36524 -115.52007 -29.5031 8.71309 50.26314 13.91835 -40.61478 -10.73933 -41.76346 -1.92284 -4.66172 40.90789 -5.88069 13.57024 -0.44719 -35.74001 -5.52699 -1.92775
0.63316 -1.02771 0.00064 -172.0945 54.66996 -4.0833 44.34815 2.56666 -4.32615 -11.81144 -4.04947 -0.83076 -3.63942 -144.1469 -79.49997 93.93375 109.80293 -47.78054 -6.39655 126.33153 37.7704 -42.92579 105.54738 -115.03656 -29.02468 8.66617 50.39845 13.92855 -40.58809 -9.04917 -42.64816 -0.81844 -5.24289 40.75189 -5.92685 13.42691 -0.44638 -35.98274 -5.59345 -2.04335
0.63376 -1.02805 0.00168 -171.72757 54.74615 -4.46279 43.93619 2.84541 -3.57585 -11.65623 -3.79017 -0.83076 -4.26064 -143.45273 -81.404 94.51879 113.21978 -48.6654 -6.80186 125.68031 37.85767 -42.31008 105.78006 -115.37493 -29.54649 8.67859 50.57643 13.92317 -40.53643 -6.78346 -44.02364 0.2753 -6.44299 40.69809 -6.00816 13.25742 -0.44539 -36.3164 -5.58863 -2.13735
0.63431 -1.02833 0.00268 -171.41824 54.85427 -4.80604 43.53754 3.11275 -2.92918 -11.54873 -3.53438 -0.83076 -4.78504 -142.81796 -83.02297 95.05228 116.12572 -49.36988 -7.14772 124.95934 37.85667 -41.60568 105.9771 -115.28952 -29.55368 8.66133 50.75914 13.8994 -40.47399 -4.84711 -45.1258 1.33375 -7.31602 40.60101 -6.06462 13.0949 -0.44455 -36.60545 -5.60809 -2.23174
0.63481 -1.02857 0.00374 -171.03823 54.98267 -5.19653 43.08424 3.3931 -2.17736 -11.37344 -3.32831 -0.83076 -5.48848 -142.17338 -85.11424 95.58697 119.86198 -50.42732 -7.58528 124.26559 37.9056 -40.82296 106.22744 -115.36078 -29.74984 8.65108 50.83756 13.98329 -40.50682 -2.62369 -46.43603 2.57067 -8.37262 40.48322 -6.15812 12.95453 -0.44337 -36.90823 -5.66046 -2.36621
0.63544 -1.02893 0.00468 -170.78434 55.04953 -5.50104 42.74449 3.65009 -1.6038 -11.32432 -3.01034 -0.83076 -5.85672 -141.51757 -86.32291 96.14419 122.0475 -50.81137 -7.85293 123.55077 37.89305 -40.26401 106.37949 -115.3224 -29.81738 8.64174 51.14019 13.83907 -40.33289 -0.86028 -47.43341 3.43294 -9.1995 40.43417 -6.18304 12.76205 -0.44288 -37.20364 -5.62926 -2.41214
0.63647 -1.02955 0.00528 -170.9034 54.94574 -5.55373 42.74107 3.84068 -1.56103 -11.62368 -2.39686 -0.83076 -5.18087 -140.88169 -84.89479 96.74719 119.63599 -49.17891 -7.61716 122.7702 37.67679 -40.28948 106.23938 -114.77782 -29.25326 8.62371 52.10191 13.0704 -39.61498 -0.52773 -47.4175 3.22437 -9.21741 40.56865 -6.00914 12.42363 -0.44443 -37.46139 -5.36753 -2.21704
0.63762 -1.0303 0.00574 -171.15298 54.78489 -5.51693 42.84969 4.00605 -1.70503 -12.05572 -1.67122 -0.83076 -4.18133 -140.23512 -82.5845 97.3652 115.66508 -46.88168 -7.20997 121.96159 37.39391 -40.53214 105.99997 -114.10243 -28.5402 8.60448 53.27932 12.07268 -38.68614 -0.6748 -47.07543 2.64436 -8.98841 40.76678 -5.76509 12.0356 -0.44667 -37.7075 -5.02729 -1.93421
0.63869 -1.03102 0.00625 -171.34047 54.66228 -5.52219 42.89316 4.18152 -1.76497 -12.43756 -0.99337 -0.83076 -3.38763 -139.58044 -80.74917 97.97039 112.50723 -44.95824 -6.8907 121.15358 37.13925 -40.66533 105.81159 -113.49692 -27.92454 8.58447 54.32601 11.17841 -37.84002 -0.58953 -46.90218 2.25842 -8.88845 40.9245 -5.55397 11.67466 -0.44855 -37.95618 -4.73432 -1.6922
0.63988 -1.03161 0.00682 -171.53356 54.48639 -5.52687 42.99416 4.36506 -1.81229 -12.7731 -0.32705 -0.83076 -2.34586 -138.97654 -78.61733 98.61063 108.94203 -42.73856 -6.53276 120.40367 36.89787 -40.8516 105.60055 -112.87679 -27.21585 8.57256 55.51235 10.28515 -37.04785 -0.54429 -46.65931 1.76666 -8.73795 41.13324 -5.34022 11.29092 -0.45062 -38.22066 -4.39013 -1.44397
0.64084 -1.0325 0.00723 -171.75085 54.40737 -5.50662 43.00487 4.52348 -1.93644 -13.23909 0.38858 -0.83076 -1.7476 -138.26547 -76.88496 99.17275 105.83428 -40.97642 -6.21263 119.52112 36.61201 -40.97571 105.41187 -112.24335 -26.65445 8.54209 56.4582 9.33706 -36.09436 -0.53771 -46.47735 1.40593 -8.62724 41.25061 -5.1141 10.94664 -0.45246 -38.44684 -4.13465 -1.18997
0.64108 -1.03424 0.00727 -171.97184 54.62229 -5.47448 42.71466 4.63662 -2.19367 -14.01826 1.21936 -0.83076 -2.40899 -137.26647 -76.50072 99.57526 104.47 -40.62889 -6.04676 118.3054 36.20824 -40.87601 105.31023 -111.62336 -26.52074 8.46637 56.69002 8.2812 -34.74092 -0.51832 -46.5429 1.50787 -8.67389 41.09144 -4.87739 10.69389 -0.45351 -38.58204 -4.14571 -0.92586
0.64109 -1.03626 0.00713 -172.21887 54.9342 -5.4134 42.33428 4.72214 -2.52838 -14.92621 2.09379 -0.83077 -3.53577 -136.15999 -76.54105 99.88617 103.59925 -40.76493 -5.92307 116.95004 35.76212 -40.70352 105.23135 -110.988 -26.53923 8.37079 56.67189 7.18058 -33.23429 -0.52465 -46.67852 1.7523 -8.76835 40.83979 -4.62949 10.48796 -0.45432 -38.67649 -4.24853 -0.66204
0.64122 -1.0381 0.00704 -172.47504 55.19452 -5.34242 42.01107 4.80819 -2.85107 -15.78639 2.94479 -0.83077 -4.47766 -135.09933 -76.36662 100.20015 102.43273 -40.68723 -5.77429 115.64284 35.34358 -40.56461 105.14463 -110.34267 -26.49235 8.28016 56.76582 6.10853 -31.80119 -0.52348 -46.78 1.92541 -8.84637 40.63501 -4.38207 10.28046 -0.45525 -38.78123 -4.30828 -0.40843
0.64129 -1.04019 0.00709 -172.64757 55.4866 -5.36609 41.62334 4.94323 -3.08436 -16.60984 3.81792 -0.83077 -5.29521 -134.04944 -76.25595 100.68048 101.50891 -40.56486 -5.64409 114.40597 34.89262 -40.43753 105.05515 -109.76134 -26.42168 8.20626 56.87276 4.9933 -30.34179 -0.52076 -46.8805 2.1147 -8.89414 40.40988 -4.15082 9.98905 -0.45615 -38.92008 -4.37154 -0.10798
0.64144 -1.04182 0.0068 -172.9983 55.73373 -5.18641 41.34721 4.9711 -3.51721 -17.53352 4.65003 -0.83077 -6.48745 -132.95368 -76.12198 100.78866 100.2234 -40.6542 -5.48804 112.98149 34.49371 -40.25788 104.96404 -109.04911 -26.44247 8.09339 56.8917 3.96093 -28.90655 -0.52151 -47.00338 2.30717 -9.01903 40.20706 -3.88524 9.88286 -0.45704 -38.9787 -4.44966 0.09354
0.64188 -1.04209 0.0056 -173.83952 55.8559 -4.45562 41.399 4.70045 -4.50474 -18.74631 5.38967 -0.83077 -8.59537 -131.74384 -75.84574 99.92146 97.77084 -41.25247 -5.24581 111.14459 34.30286 -40.01713 104.98144 -107.94117 -26.64135 7.87306 56.71556 3.16541 -27.55084 -0.52147 -47.17597 2.4914 -9.34878 40.06359 -3.51834 10.28927 -0.4579 -38.82271 -4.55333 0.02233
0.64241 -1.04189 0.00406 -174.85822 55.92593 -3.52035 41.56531 4.32485 -5.68567 -20.04685 6.07957 -0.83077 -11.06792 -130.4959 -75.52992 98.6765 94.95463 -42.04128 -4.97783 109.11095 34.15617 -39.71321 104.97322 -106.71027 -26.93259 7.61531 56.46015 2.45705 -26.2305 -0.52244 -47.36936 2.67288 -9.75491 39.94937 -3.11937 10.87882 -0.45875 -38.5881 -4.66848 -0.14921
0.64291 -1.04193 0.00268 -175.79112 56.00452 -2.67775 41.6811 4.00344 -6.76184 -21.27757 6.77169 -0.83077 -13.37721 -129.27228 -75.22093 97.58577 92.34295 -42.71971 -4.72542 107.12006 33.95412 -39.39276 104.90144 -105.56045 -27.20914 7.37749 56.2495 1.71123 -24.9111 -0.52328 -47.55143 2.84524 -10.12499 39.8386 -2.74151 11.37595 -0.45964 -38.39141 -4.77342 -0.27519
0.64339 -1.04189 0.00127 -176.74431 56.14852 -1.83781 41.79051 3.65326 -7.91051 -22.63854 7.55357 -0.83077 -15.68797 -128.00824 -74.97757 96.56853 89.5787 -43.51987 -4.45797 105.31938 33.89925 -39.25799 105.1543 -104.30129 -27.38397 7.12569 55.99629 0.95251 -23.51398 -0.52398 -47.74342 3.0643 -10.50254 39.65677 -2.33562 11.91168 -0.46038 -38.18365 -4.90009 -0.39994
0.64391 -1.04189 -0.00016 -177.70005 56.14495 -0.94085 41.93765 3.3389 -8.95501 -23.74827 8.13346 -0.83077 -18.08151 -126.82963 -74.57734 95.30591 87.04342 -44.09945 -4.21529 103.08 33.54924 -38.72602 104.71661 -103.24382 -27.7803 6.89557 55.81248 0.24459 -22.28965 -0.52475 -47.91908 3.18588 -10.88169 39.62754 -1.98064 12.41218 -0.46142 -37.98129 -4.98617 -0.55238
0.64455 -1.04216 -0.00154 -178.5933 55.72599 0.03563 42.19472 3.14514 -9.64641 -24.13418 8.18954 -0.83077 -20.56694 -125.82158 -73.79662 93.4917 85.19817 -44.07528 -4.04677 99.65711 32.37147 -37.08435 102.44813 -102.75033 -28.8538 6.72488 55.87222 -0.36579 -21.53099 -0.52519 -48.04203 3.01863 -11.24945 40.0436 -1.77462 12.75098 -0.46332 -37.80882 -4.93005 -0.74555
0.6452 -1.04248 -0.00294 -179.48774 55.16332 1.0678 42.47998 2.99175 -10.22883 -24.26532 8.03959 -0.83077 -23.1291 -124.91575 -72.84807 91.43857 83.60015 -43.8117 -3.90409 95.80393 30.89647 -35.05294 99.47393 -102.46954 -30.12969 6.57949 56.00001 -0.92353 -20.94631 -0.52554 -48.14771 2.75586 -11.61508 40.60704 -1.621 13.05152 -0.46552 -37.64523 -4.83723 -0.96503
0.64583 -1.04276 -0.00433 -180.39858 54.68003 2.0922 42.73055 2.82289 -10.87321 -24.51788 7.96967 -0.83077 -25.68564 -124.01212 -71.94768 89.47228 81.90612 -43.6197 -3.74956 92.16182 29.55811 -33.21613 96.77513 -102.10516 -31.25456 6.42855 56.07612 -1.49142 -20.2846 -0.52592 -48.26297 2.55028 -11.98 41.08287 -1.44301 13.38209 -0.46755 -37.48094 -4.7788 -1.18002
